<svg width="469" height="436" viewBox="0 0 469 436" fill="none" xmlns="http://www.w3.org/2000/svg">
<path fill-rule="evenodd" clip-rule="evenodd" d="M218.586 51.3928C263.37 40.3525 298.974 -6.82211 344.571 0.836249C386.526 7.88306 423.555 47.88 430.216 86.9379C437.656 130.568 370.443 166.014 380.115 209.265C389.486 251.169 485.957 256.193 477.472 298.258C469.195 339.293 392.076 322.018 353.144 342.975C330.007 355.43 320.01 381.968 297.381 395.2C273.452 409.192 246.192 415.931 218.586 421.655C186.164 428.376 151.633 443.24 120.78 431.813C90.1107 420.454 78.3891 386.319 58.0424 362.195C37.8668 338.273 5.97465 319.547 0.800731 289.558C-4.38864 259.479 16.8155 231.293 30.695 203.685C42.675 179.856 62.7237 161.4 76.7246 138.538C93.3261 111.429 93.1717 73.12 121.197 55.9043C148.639 39.0466 186.775 59.2353 218.586 51.3928Z" fill="#E5E9FC"/>
</svg>
