<svg width="542" height="463" viewBox="0 0 542 463" fill="none" xmlns="http://www.w3.org/2000/svg">
<path fill-rule="evenodd" clip-rule="evenodd" d="M323.397 71.5306C378.466 86.5764 441.316 37.7313 489.467 68.7748C531.845 96.0969 555.118 164.929 532.166 206.128C504.783 255.278 428.193 249.058 375.766 272.866C354.666 282.448 327.534 285.354 315.479 304.529C287.33 349.302 307.832 421.896 263.312 451.735C225.876 476.827 169.116 451.155 125.749 431.697C80.4073 411.352 32.9617 383.146 12.4572 339.179C-7.74824 295.852 0.276583 244.452 18.8981 202.578C34.9475 166.488 74.8068 148.697 107.431 125.612C128.85 110.456 158.178 108.465 177.165 90.5901C204.418 64.9328 201.648 5.67787 240.153 0.659188C276.132 -4.03024 287.668 61.7692 323.397 71.5306Z" fill="#CBE4F9"/>
</svg>
